<?xml version="1.0" encoding="utf-8"?>
<!-- Generator: Adobe Illustrator 21.0.2, SVG Export Plug-In . SVG Version: 6.00 Build 0)  -->
<svg version="1.1" id="Layer_1" xmlns="http://www.w3.org/2000/svg" xmlns:xlink="http://www.w3.org/1999/xlink" x="0px" y="0px"
	 viewBox="0 0 362.8 148.7" style="enable-background:new 0 0 362.8 148.7;" xml:space="preserve">
<style type="text/css">
	.st0{fill:#093760;}
	.st1{fill:#EC193F;}
</style>
<title>calvet-logo-cropped</title>
<path class="st0" d="M66.1,16.3L52,24.4c-3.3-5.6-9.4-9.1-16-8.9c-10.6,0-18.5,8-18.5,19.6c0,12.5,8.6,19.6,18.6,19.6
	c6.6,0.1,12.8-3.3,16.3-8.9l13.2,9.3C59.4,64.3,49.2,70,36.3,70C15.5,70,0.8,55.5,0.8,35S15.5,0,36.3,0C49,0.1,60.4,6.1,66.1,16.3z"
	/>
<path class="st0" d="M136,68.8h-17.1l-5.1-14.2H87l-5.1,14.2H65.1L91,1.4h19.2L136,68.8z M92.2,40.1h16.4l-8.2-22.7L92.2,40.1z"/>
<path class="st0" d="M189.5,68.8h-50V1.3h16.1v52.5h33.9V68.8z"/>
<path class="st0" d="M223.9,68.8h-19.2L179.8,1.3h17.1l17.5,50.9L232,1.3h16.8L223.9,68.8z"/>
<path class="st0" d="M303.9,68.8h-51.6V1.3h51.4v14.5h-35.3v11.7h33.3v14.4h-33.3v12.4h35.5V68.8z"/>
<path class="st0" d="M362.8,16.3h-19.9v52.5h-16.1V16.3h-20v-15h56V16.3z"/>
<path class="st0" d="M5.1,140.6v7.9H2.8v-19.6h7.4c4.4,0,6.9,2.2,6.9,5.9s-2.5,5.9-6.9,5.9L5.1,140.6L5.1,140.6z M5.1,131v7.5h5.1
	c3,0,4.7-1.2,4.7-3.7s-1.6-3.7-4.7-3.7H5.1V131z"/>
<path class="st0" d="M28.5,128.8c4.4,0,6.8,2,6.8,5.5s-2.6,5.5-6.8,5.5h-0.3l7,8.5h-2.8l-6.9-8.5H23v8.5h-2.3v-19.6h7.8V128.8z
	 M23,130.9v6.9h5.4c3,0,4.5-1.2,4.5-3.5s-1.6-3.4-4.5-3.4H23z"/>
<path class="st0" d="M58.2,138.6c0.2,5.4-4,9.9-9.4,10.1c-0.2,0-0.4,0-0.7,0c-5.6,0-10.1-4.5-10.1-10.1s4.5-10.1,10.1-10.1l0,0
	c5.4-0.2,9.9,4.1,10.1,9.6C58.2,138.2,58.2,138.4,58.2,138.6z M40.3,138.6c0.1,4.3,3.6,7.8,7.9,7.7s7.8-3.6,7.7-7.9
	c-0.1-4.3-3.5-7.7-7.8-7.7c-4.2-0.1-7.7,3.2-7.8,7.4C40.3,138.2,40.3,138.4,40.3,138.6z"/>
<path class="st0" d="M75.2,139.6H64.4v8.8h-2.3v-19.6h13.6v2.1H64.4v6.5h10.8C75.2,137.4,75.2,139.6,75.2,139.6z"/>
<path class="st0" d="M93.4,148.4H79.6v-19.6h13.7v2.1H81.9v6.6H93v2.1H81.9v6.7h11.5V148.4z"/>
<path class="st0" d="M110.7,132.5c-1.7-1.2-3.8-1.8-5.9-1.8c-3,0-5.1,1.3-5.1,3.5c0,1.8,1.5,2.8,4.5,3.2l1.9,0.2
	c3.2,0.4,6.1,1.8,6.1,5.2c0,3.9-3.5,5.9-7.8,5.9c-2.8,0-5.5-0.9-7.7-2.5l1.2-1.8c1.9,1.4,4.2,2.2,6.5,2.2c3,0,5.4-1.2,5.4-3.6
	c0-1.9-1.6-2.9-4.7-3.2l-2-0.2c-3.3-0.4-5.8-1.9-5.8-5.2c0-3.7,3.3-5.8,7.4-5.8c2.5,0,4.9,0.7,7,2.1L110.7,132.5z"/>
<path class="st0" d="M128.9,132.5c-1.7-1.2-3.8-1.8-5.9-1.8c-3,0-5.1,1.3-5.1,3.5c0,1.8,1.5,2.8,4.5,3.2l1.9,0.2
	c3.2,0.4,6.1,1.8,6.1,5.2c0,3.9-3.5,5.9-7.8,5.9c-2.8,0-5.5-0.9-7.7-2.5l1.2-1.8c1.9,1.4,4.2,2.2,6.5,2.2c3,0,5.4-1.2,5.4-3.6
	c0-1.9-1.6-2.9-4.7-3.2l-2-0.2c-3.3-0.4-5.8-1.9-5.8-5.2c0-3.7,3.3-5.8,7.4-5.8c2.5,0,4.9,0.7,7,2.1L128.9,132.5z"/>
<path class="st0" d="M136.6,148.4h-2.3v-19.6h2.3V148.4z"/>
<path class="st0" d="M160.7,138.6c0,5.6-4.5,10.1-10.1,10.1s-10.1-4.5-10.1-10.1s4.5-10.1,10.1-10.1c5.4-0.2,9.9,4,10.1,9.4
	C160.7,138.2,160.7,138.4,160.7,138.6z M142.8,138.6c0.1,4.3,3.6,7.8,7.9,7.7c4.3-0.1,7.8-3.6,7.7-7.9c-0.1-4.3-3.5-7.7-7.8-7.7
	c-4.2-0.1-7.7,3.2-7.8,7.4C142.8,138.2,142.8,138.4,142.8,138.6z"/>
<path class="st0" d="M181.1,148.4h-2L167,132.7v15.7h-2.3v-19.6h2l12.1,15.7v-15.7h2.3V148.4z"/>
<path class="st0" d="M202.7,148.4h-2.4l-2.2-5.5h-9.8l-2.2,5.5h-2.3l8.1-19.6h2.8L202.7,148.4z M189.2,140.8h8l-4-9.8L189.2,140.8z"
	/>
<path class="st0" d="M219,148.4h-13.6v-19.6h2.3v17.5H219V148.4z"/>
<path class="st0" d="M240.7,132.5c-1.7-1.2-3.8-1.8-5.9-1.8c-3,0-5.1,1.3-5.1,3.5c0,1.8,1.5,2.8,4.5,3.2l1.9,0.2
	c3.2,0.4,6.1,1.8,6.1,5.2c0,3.9-3.5,5.9-7.8,5.9c-2.8,0-5.5-0.9-7.7-2.5l1.2-1.8c1.9,1.4,4.2,2.2,6.5,2.2c3,0,5.4-1.2,5.4-3.6
	c0-1.9-1.6-2.9-4.7-3.2l-2-0.2c-3.3-0.4-5.8-1.9-5.8-5.2c0-3.7,3.3-5.8,7.4-5.8c2.5,0,4.9,0.7,7,2.1L240.7,132.5z"/>
<path class="st0" d="M259.9,148.4h-13.8v-19.6h13.7v2.1h-11.5v6.6h11.1v2.1h-11.1v6.7h11.5v2.1L259.9,148.4L259.9,148.4z"/>
<path class="st0" d="M272,128.8c4.4,0,6.8,2,6.8,5.5s-2.6,5.5-6.8,5.5h-0.3l7,8.5h-2.8l-6.9-8.5h-2.5v8.5h-2.2v-19.6h7.7L272,128.8
	L272,128.8z M266.6,130.9v6.9h5.4c3,0,4.5-1.2,4.5-3.5s-1.6-3.4-4.5-3.4H266.6z"/>
<path class="st0" d="M291,148.4h-2.8l-7.9-19.6h2.4l6.9,17.4l6.9-17.4h2.3L291,148.4z"/>
<path class="st0" d="M303.8,148.4h-2.3v-19.6h2.3V148.4z"/>
<path class="st0" d="M325.9,132.6l-1.9,1.3c-1.4-2-3.7-3.2-6.1-3.2c-4.4,0-7.9,3.5-7.9,7.9s3.5,7.9,7.9,7.9c2.4,0,4.7-1.1,6.1-3.1
	l1.8,1.3c-1.8,2.6-4.8,4.1-7.9,4c-5.6,0-10.1-4.5-10.1-10.1s4.5-10.1,10.1-10.1C321.1,128.4,324.1,130,325.9,132.6z"/>
<path class="st0" d="M343.5,148.4h-13.8v-19.6h13.6v2.1h-11.4v6.6H343v2.1h-11.1v6.7h11.5v2.1L343.5,148.4L343.5,148.4z"/>
<path class="st0" d="M360.7,132.5c-1.7-1.2-3.8-1.8-5.9-1.8c-3,0-5.1,1.3-5.1,3.5c0,1.8,1.5,2.8,4.5,3.2l1.9,0.2
	c3.2,0.4,6.1,1.8,6.1,5.2c0,3.9-3.5,5.9-7.8,5.9c-2.8,0-5.5-0.9-7.7-2.5l1.2-1.8c1.9,1.4,4.2,2.2,6.5,2.2c3,0,5.4-1.2,5.4-3.6
	c0-1.9-1.6-2.9-4.7-3.2l-2-0.2c-3.3-0.4-5.8-1.9-5.8-5.2c0-3.7,3.3-5.8,7.4-5.8c2.5,0,4.9,0.7,7,2.1L360.7,132.5z"/>
<rect y="98.9" class="st0" width="113.2" height="2.8"/>
<rect x="252.5" y="99" class="st0" width="110.1" height="2.7"/>
<polygon class="st1" points="183,82.4 188,92.6 199.2,94.2 191.1,102.2 193,113.3 183,108.1 172.9,113.3 174.8,102.2 166.7,94.2 
	177.9,92.6 "/>
<polygon class="st1" points="226,86.2 229.4,93.2 237.2,94.4 231.6,99.9 232.9,107.6 226,103.9 219,107.6 220.3,99.9 214.7,94.4 
	222.5,93.2 "/>
<polygon class="st1" points="140,86.1 143.5,93.2 151.3,94.3 145.7,99.8 147,107.6 140,103.9 133.1,107.6 134.4,99.8 128.8,94.3 
	136.6,93.2 "/>
</svg>
