<?xml version="1.0" encoding="utf-8"?>
<!-- Generator: Adobe Illustrator 21.0.2, SVG Export Plug-In . SVG Version: 6.00 Build 0)  -->
<svg version="1.1" id="Layer_1" xmlns="http://www.w3.org/2000/svg" xmlns:xlink="http://www.w3.org/1999/xlink" x="0px" y="0px"
	 viewBox="0 0 409.1 463.6" style="enable-background:new 0 0 409.1 463.6;" xml:space="preserve">
<style type="text/css">
	.st0{fill:#FBF6EB;stroke:#D0D2D3;stroke-miterlimit:10;}
	.st1{fill:none;}
	.st2{fill:#EC193F;}
	.st3{fill:#04203E;}
	.st4{fill:#FBF6EB;}
	.st5{display:none;fill:#04203E;enable-background:new    ;}
	.st6{font-family:'ArialMT';}
	.st7{font-size:84.4661px;}
	.st8{letter-spacing:10;}
	.st9{font-size:24.119px;}
	.st10{letter-spacing:1;}
	.st11{display:none;}
	.st12{display:inline;fill:#04203E;}
	.st13{display:none;fill:#04203E;}
	.st14{display:none;fill:#EC193F;}
	.st15{fill:#093760;}
</style>
<g id="Layer_1_1_">
	<polygon class="st0" points="214.3,22.2 136.3,2.6 129.6,29.9 128.2,29.9 128.2,24.9 123.8,25.2 119.4,39.9 121.7,45 121.8,48.4 
		126.8,55.3 123.1,67 123.1,73.4 128.3,84 128.2,88.4 131.2,93.1 131.2,96.4 128.1,98.1 128.1,102.4 131.7,106.5 131.7,110 
		136.9,112.7 142.1,110.8 140.6,103.7 148.4,106.9 147.4,109.3 143.1,109.2 146.4,116.4 146.4,121.7 145.1,121.7 144.2,119.3 
		138.9,115.3 135.9,119.4 137.6,123.4 137.9,132.5 142.3,141.3 145.8,143.4 144.8,145 137.9,147 137.4,152.7 139.4,159.1 
		139.1,163.9 144.8,168.9 144.8,174.8 154.3,186.8 156.9,196.7 152.6,203.7 156.8,211.2 161,211.2 164.6,213.1 176.5,224.4 
		180.5,226 192.7,237.1 192.7,240.1 196.5,241.1 198.8,244 202.8,246.5 204.5,254.3 206.8,258 208.6,261.9 209.5,270.3 208.3,273.7 
		208.5,278.3 262.6,285 262.6,288.5 267.2,288.5 272.7,282 271.4,278 268.7,278.3 268.4,276.9 271.3,275.7 273.4,272 275.3,258.4 
		278.5,253 280.7,253 288.2,248.7 288.2,247.2 282.8,240.3 280.8,229.4 198.5,99.8 	"/>
	<g>
		<polygon class="st1" points="249.1,179.4 249.1,157.4 235.1,157.4 		"/>
		<polygon class="st2" points="282.8,240.3 280.8,229.4 272.3,216.1 272.3,273.9 273.4,272 275.3,258.4 278.5,253 280.7,253 
			288.2,248.7 288.2,247.2 		"/>
		<polygon class="st2" points="235.1,157.4 220.5,157.4 220.5,279.2 249.1,282.8 249.1,179.4 		"/>
		<polygon class="st2" points="168.6,157.4 168.6,216.9 176.5,224.4 180.5,226 192.7,237.1 192.7,240.1 196.5,241.1 197.2,241.9 
			197.2,157.4 		"/>
		<polygon class="st2" points="272.7,282 272.3,280.9 272.3,282.4 		"/>
		<polygon class="st2" points="138.9,157.4 139.4,159.1 139.1,163.9 144.8,168.9 144.8,174.8 145.3,175.4 145.3,157.4 		"/>
	</g>
	<g>
		<polygon class="st3" points="198.5,99.8 214.3,22.2 136.3,2.6 129.6,29.9 128.2,29.9 128.2,24.9 123.8,25.2 119.4,39.9 121.7,45 
			121.8,48.4 126.8,55.3 123.1,67 123.1,73.4 128.3,84 128.2,88.4 131.2,93.1 131.2,96.4 128.1,98.1 128.1,102.4 131.7,106.5 
			131.7,110 136.9,112.7 142.1,110.8 140.6,103.7 148.4,106.9 147.4,109.3 143.1,109.2 146.4,116.4 146.4,121.7 145.1,121.7 
			144.2,119.3 138.9,115.3 135.9,119.4 137.6,123.4 137.9,132.5 142.3,141.3 145.8,143.4 144.8,145 137.9,147 137.4,152.7 
			139.1,157.9 235.4,157.9 		"/>
	</g>
	<polygon class="st4" points="172,68.9 176.8,78.7 187.6,80.2 179.8,87.8 181.6,98.5 172,93.5 162.4,98.5 164.2,87.8 156.4,80.2 
		167.2,78.7 	"/>
	<text transform="matrix(1 0 0 1 -1.0782 373.472)" class="st5 st6 st7 st8">CALVET</text>
	<text transform="matrix(1 0 0 1 5.9212 444.4156)" class="st5 st6 st9 st10">PROFESSIONAL SERVICES</text>
	<g class="st11">
		<rect x="56.5" y="397.8" class="st12" width="119.7" height="1.2"/>
		<rect x="233.6" y="397.8" class="st12" width="118.8" height="1.2"/>
	</g>
	<polygon class="st13" points="204.6,381.4 209.6,391.6 220.9,393.2 212.7,401.1 214.7,412.3 204.6,407 194.6,412.3 196.5,401.1 
		188.4,393.2 199.6,391.6 	"/>
	<g>
		<path class="st1" d="M211.5,242.1L211.5,242.1c-0.2-0.4-0.4-0.9-0.4-1.3C211.2,241.2,211.3,241.7,211.5,242.1z"/>
		<path class="st1" d="M212.1,244.5c-0.1,0-0.1,0-0.2,0C212,244.5,212.1,244.5,212.1,244.5L212.1,244.5z"/>
		<path class="st1" d="M212.3,258.7c-0.2,1.7-0.2,1.7,0.5,3.3c0.3-0.5,0.6-1,0.8-1.4c0.1-0.1,0.1-0.4,0.1-0.4
			C213.2,259.6,212.7,259.2,212.3,258.7z"/>
		<path class="st1" d="M206.1,146.3c-0.9-0.4-1.2-1.2-1.2-2.1c0-1,0-2,0-3c-0.5,0.2-1,0.3-1.4,0.5c-0.4,0.1-0.9,0.2-1.3,0.4
			c-0.2,0.1-0.4,0.3-0.4,0.4c0.1,0.9-0.5,1.2-1.3,1.4c-1.2,0.3-2.2,1.2-3.5,0.4c-0.3,0.3-0.4,0.6-0.7,0.7c-1.1,0.4-2.2,0.9-3.3,1.2
			c-1.2,0.4-2.4,0.6-3.2,1.7c-0.1,0.1-0.3,0.2-0.4,0.3c-0.6,0.3-1.2,0.7-1.6,0.9c0.3,0.4,0.6,0.8,0.9,1.1c0.5,0.7,1.1,1,2,0.9
			c0.7-0.1,1.4-0.1,2,0.3c0.1,0.1,0.4,0.1,0.6,0.1c0.4,0,0.9,0,1.3,0c0.7,0.1,1.5,0.3,2.2,0.2c1.4,0,2.7,0.3,4,0.8
			c0.2,0.1,0.5,0.2,0.8,0.1c0.6-0.1,0.9,0,1,0.6c0.4-0.2,0.8-0.4,1.1-0.7c0.8-0.7,0.8-0.8,1.8-0.3c0.2-0.2,0.4-0.4,0.5-0.6
			c0.3-0.5,0.8-1,0.9-1.5c0.1-1,0-2.1-0.2-3.2C206.5,146.9,206.3,146.4,206.1,146.3z"/>
		<path class="st1" d="M225.9,193.9v-0.2v-0.3l-0.3-2.3l0,0l0.1-0.1l0.1-0.3l0.2-1.7l0,0l0,0l0,0l-0.8-4.6l-1.1,7.3
			c0-0.2,0-0.3,0.1-0.5c0,0.2,0,0.3,0,0.5v0.2l0,0l1,4.2c-0.2-0.5-0.3-1.1-0.5-1.6c0.2,0.5,0.3,1.1,0.5,1.6l-0.9,3l1,3.7l0.7-0.7
			l0.1-0.8l0.1-5.2L225.9,193.9z"/>
		<path class="st4" d="M211.3,239.4c-0.2,0.5-0.2,1-0.2,1.4c0.1,0.5,0.2,0.9,0.4,1.3c0.1,0,0.1,0,0.2,0c-0.1-0.9-0.1-1.8-0.2-2.7
			C211.5,239.4,211.4,239.4,211.3,239.4z"/>
		<path class="st4" d="M212.5,249c-0.1-1.3-0.2-2.6-0.3-3.9c0-0.1,0-0.2-0.1-0.3s-0.1-0.2-0.1-0.3c-0.1,0-0.1,0-0.2,0
			c0,0.7,0,1.4,0,2.1c0.1,1,0.2,2,0.3,3c0,0.6-0.2,1.2-0.2,1.7C212.5,250.7,212.6,249.8,212.5,249z"/>
		<path class="st4" d="M212.6,270.1c0,0.9-0.6,1.8-0.1,2.7h0.1C212.6,271.9,212.6,271,212.6,270.1z"/>
		<path class="st4" d="M226.2,195.5c-0.1-0.5-0.2-1.1-0.3-1.6l0.3,2.2C226.3,195.9,226.2,195.7,226.2,195.5z"/>
		<path class="st4" d="M226,190.1c0.1-0.3,0.1-0.6,0.1-0.9l-0.2,1.7C225.9,190.6,225.9,190.3,226,190.1z"/>
		<path class="st4" d="M226,193.4v0.3C226,193.6,226,193.5,226,193.4z"/>
		<path class="st4" d="M225.8,191.2C225.8,191.1,225.8,191.1,225.8,191.2L225.8,191.2L225.8,191.2z"/>
		<path class="st4" d="M226,188.8c0-0.4-0.2-0.9-0.3-1.3c-0.2-1-0.4-2-0.6-3.1l0.8,4.6C226,188.9,226,188.9,226,188.8z"/>
		<path class="st4" d="M225.2,184.4c-0.3,1.2-0.4,2.4-0.6,3.6c-0.1,1.1-0.4,2.2-0.5,3.2c0,0.2,0,0.3,0,0.5L225.2,184.4z"/>
		<path class="st4" d="M224.1,191.9c0,0.3,0,0.7,0.1,1c0.1,0.5,0.3,1.1,0.5,1.6s0.3,1.1,0.5,1.6L224.1,191.9z"/>
		<path class="st4" d="M226,202.1l-0.7,0.7C225.4,202.6,225.7,202.4,226,202.1z"/>
		<path class="st4" d="M226.1,201.3l-0.1,0.8C226.1,201.9,226.2,201.5,226.1,201.3z"/>
		<path class="st4" d="M214.1,275.5c-0.2-0.1-0.5-0.3-0.7-0.4c0.3,0.5,0.7,0.8,1.2,1.1C214.5,275.9,214.3,275.6,214.1,275.5z"/>
		<path class="st4" d="M223,278.9c-0.5-0.9-0.6-6.7-1.1-8.8c-0.3-1,0.1-2.1,0-3.2c0-0.6,0.1-1.1,0.5-1.6c0.3-0.4,0.6-0.8,0.9-1.2
			c0.2-0.4,0.2-0.7-0.2-1.1c-0.2-0.2-0.4-0.5-0.4-0.7c-0.1-0.6,0-1.2,0-1.8c0-1.9,0.3-3.8-0.2-5.7c-0.3-1.2-0.4-2.5-0.6-3.7
			c-0.1-0.6-0.2-1.2-0.1-1.7c0.1-1.6,0.2-3.1-0.3-4.7c-0.1-0.3-0.1-0.6-0.1-0.8c0.6-1.9,0.9-3.9,1-6c0.1-1.7,0.4-3.4,0.6-5.2
			c0.7,0.2,0.9,0,0.9-0.5c0.2-1.2,0.4-2.5,0.5-3.7c0.1-1,0.2-1.9,0.3-2.9c0.1-1.1,0.2-2.2,0.3-3.2c0.1-1.1,0-2.2,0.3-3.2
			c0.3-1.1,0.4-2.2,0.2-3.3c-0.1-0.6-0.2-1.3-0.3-1.7c0.5-0.3,0.9-0.6,1.3-0.9c0.1,0,0.1-0.1,0.2-0.1c0.7-0.2,1.5-0.3,2.2-0.5
			c0.2,0,0.4-0.2,0.5-0.3c0.3-0.2,0.6-0.5,1-0.7c1-0.4,1.5-1.1,1.2-2.3c-0.1-0.5-0.1-1.1,0.1-1.7c0.1-0.5,0.5-1,0.8-1.4
			c0.2-0.4,0.2-0.8-0.3-1.2c0.1-0.1,0.2-0.2,0.2-0.3c1-2.1,2.1-4.3,3.1-6.4c0.2-0.4,0.4-0.9-0.3-1.1c-0.1,0-0.3-0.3-0.2-0.5
			c0.2-1.5,0.4-3,0.5-4.5c0.1-0.5-0.1-1.1,0-1.6c0.1-0.8,0-1.4-0.3-2.3c-0.5-1.2-1.1-2.5-0.5-3.8c0.1-0.1,0.1-0.3,0.1-0.5
			c-0.1-1.4-0.1-2.9-0.2-4.3c0-0.7-0.1-1.3-0.2-2c-0.1-0.8-0.2-1.6-0.3-2.3c-0.2-1.2-0.6-2.3-0.7-3.5c-0.1-0.7-0.2-1.2-0.8-1.6
			c-0.2-0.2-0.4-0.4-0.5-0.6c-0.6-1.1-0.6-2.3-0.5-3.5s-0.1-2.3-0.6-3.3s-1.1-2-1.6-3c-1.1-1.9-2.3-3.6-4.7-4.2
			c-1.2-0.3-2.3-1-3.5-1.6c-0.2-0.1-0.4-0.3-0.5-0.5c-0.3-0.6-0.5-1.2-0.9-1.7c-0.3-0.5-0.7-0.9-1.2-1.1c-0.5-0.3-1.2-0.4-1.8-0.6
			c0.2-0.6,0.5-1.2,0.6-1.7c0.2-0.7,0.3-1.4,1.1-1.6c0.1,0,0.2-0.2,0.2-0.3c1-1.2,0.9-2.7,0.9-4.2c0-0.6-0.1-1.1-0.8-1.1
			c0-0.5,0-0.9,0-1.4c0-0.8-0.1-1.6,0-2.3c0.2-2.1-0.8-3.6-2.4-4.7c-1.1-0.8-2.3-1.4-3.7-1.5c-2,0-3.9,0.7-5.4,2
			c-0.6,0.5-1.1,1.1-1.5,1.8c-0.3,0.4-0.4,0.6-0.9,0.4c-0.2-0.1-0.4,0-0.4,0c-0.3-0.3-0.4-0.6-0.6-0.7c-0.4-0.2-0.9-0.3-1.4-0.3
			c-1,0.1-2,0.4-3,0.4c-1.8,0-3.3,0.7-4.8,1.5c-0.4,0.2-0.8,0.4-1.2,0.6c-0.9,0.5-1.9,0.5-2.7,1.3c-0.5,0.6-1.3,0.7-2.1,0.8
			c-1,0.1-2.1,0.6-3.1,0.9c-0.9,0.3-1.9,0.7-2.8,1c-0.8,0.2-1.6,0.3-2.4,0.5c-0.3,0.1-0.5,0.2-0.7,0.3c-0.8,0.7-1.6,1.4-2.3,2.2
			c-1.3,1.4-2.6,2.7-3.8,4.1c-0.8,1-1.5,2.2-1,3.6c0.5,1.5,1.4,2.8,2.5,3.9c0.8,0.9,1.7,1.8,2.7,2.6c1.1,1,2.3,1.9,3.5,2.8
			c1.1,0.9,2.2,1.7,3.3,2.6c1.4,1.1,2.7,2.2,4,3.4c0.7,0.6,1.4,1,1.7,2c0.4,1.4,1.1,2.7,1.7,4c0.4,0.8,0.9,1.5,0.7,2.5
			c-0.2,1.2-0.2,2.5-0.4,3.7c-0.1,1.4-0.4,2.8-0.5,4.2c-0.1,1.1,0,2.2,0,3.4c0,1.8,0.1,3.6,0.1,5.3c0,0.4-0.1,0.8,0.1,1.1
			c0.3,0.7,0.3,1.4,0,2.1c-0.1,0.1,0,0.3,0,0.5s0.1,0.5,0,0.7c-0.2,0.7-0.4,1.3-0.6,2c-0.3,1.2-0.4,2.4-0.7,3.5
			c-0.2,0.7-0.6,1.3-0.8,2c-0.1,0.3-0.1,0.8,0,1.1c1,1.7,2.4,2.9,4.2,3.8c-0.1,0.3-0.2,0.5-0.2,0.8c-0.1,0.5-0.2,1-0.3,1.5
			c0,0.5,0.2,1,0.1,1.4c-0.3,1.6-0.4,3.2-0.2,4.8c0.1,1,0.2,2,0.4,2.9c0.1,0.5,0.5,1,0.7,1.6c0.4,1.1,0.7,2.2,1,3.4
			c0.6,2.1,1,4.2,1.1,6.4c0,0.3,0,0.7,0,1c0.1,0,0.1,0,0.2-0.1c0.2,0.3,0.4,0.6,0.5,1c0.1,0.7,0.3,1.5,0.4,2.2l1.2,1.5l4,2.4
			l1.7,7.8l2.3,3.7l1.8,4l0.8,6l0.6,5.9l0.1,9.9l12.8,1.9L223,278.9z M206.7,150.3c0,0.5-0.5,1-0.9,1.5c-0.1,0.2-0.3,0.4-0.5,0.6
			c-1-0.5-1-0.5-1.8,0.3c-0.3,0.3-0.7,0.5-1.1,0.7c-0.1-0.6-0.5-0.7-1-0.6c-0.2,0-0.5,0-0.8-0.1c-1.3-0.5-2.6-0.8-4-0.8
			c-0.7,0-1.5-0.2-2.2-0.2c-0.4,0-0.9,0-1.3,0c-0.2,0-0.4,0-0.6-0.1c-0.6-0.5-1.3-0.4-2-0.3c-0.9,0.1-1.5-0.2-2-0.9
			c-0.2-0.4-0.5-0.7-0.9-1.1c0.5-0.3,1.1-0.6,1.6-0.9c0.2-0.1,0.4-0.2,0.4-0.3c0.8-1.2,2-1.3,3.2-1.7c1.1-0.4,2.2-0.8,3.3-1.2
			c0.2-0.1,0.4-0.4,0.7-0.7c1.2,0.8,2.3-0.1,3.5-0.4c0.7-0.2,1.3-0.5,1.3-1.4c0-0.1,0.2-0.3,0.4-0.4c0.4-0.2,0.9-0.3,1.3-0.4
			c0.5-0.1,0.9-0.3,1.4-0.5c0,1,0,2,0,3c0,0.9,0.2,1.7,1.2,2.1c0.2,0.1,0.4,0.5,0.4,0.8C206.6,148.2,206.8,149.3,206.7,150.3z
			 M211.5,242.1L211.5,242.1c-0.2-0.4-0.4-0.9-0.4-1.3c-0.1-0.5,0-0.9,0.2-1.4c0.1,0,0.2,0,0.3,0c0.1,0.9,0.1,1.8,0.2,2.7
			C211.7,242.1,211.6,242.1,211.5,242.1z M211.9,246.6c0-0.7,0-1.4,0-2.1c0.1,0,0.1,0,0.2,0l0,0c0,0.1,0,0.2,0.1,0.3s0,0.2,0.1,0.3
			c0.1,1.3,0.2,2.6,0.3,3.9c0,0.8,0,1.7-0.6,2.4c0.1-0.6,0.3-1.2,0.2-1.7C212.2,248.6,212,247.6,211.9,246.6z M213.5,260.6
			c-0.2,0.5-0.5,0.9-0.8,1.4c-0.6-1.7-0.6-1.7-0.5-3.3c0.5,0.5,0.9,1,1.3,1.5C213.6,260.2,213.6,260.4,213.5,260.6z M226,202.1
			c-0.2,0.3-0.6,0.5-0.7,0.7l-1-3.7l0.9-3c-0.2-0.5-0.3-1.1-0.5-1.6s-0.3-1.1-0.5-1.6c-0.1-0.3-0.1-0.6-0.1-1l0,0v-0.2
			c0-0.2,0-0.3,0-0.5c0.1-1.1,0.3-2.2,0.5-3.2c0.2-1.2,0.3-2.4,0.6-3.6c0.2,1,0.4,2,0.6,3.1c0.1,0.4,0.2,0.9,0.3,1.3
			c0,0.1,0,0.2,0,0.3v0.1v0.1l0,0c0,0.3,0,0.6-0.1,0.9c-0.1,0.3-0.1,0.5-0.1,0.8v0.2v0.1l0.2,2.3c0,0.1,0,0.2,0,0.3v0.2
			c0.1,0.5,0.2,1.1,0.3,1.6c0,0.2,0.1,0.5,0,0.6l-0.1,5.2C226.2,201.5,226.1,201.9,226,202.1z"/>
	</g>
	<g class="st11">
		<path class="st12" d="M82.2,328.2l-10.1,6.2c-3.3-5.1-8.7-8.2-15.3-8.2c-10.7,0-18.7,7.9-18.7,19.3c0,11.9,8.2,19.3,18.7,19.3
			c6.5,0,11.9-3,15.4-8.1l9.6,6.9c-5.2,7.7-14.1,12.5-25,12.5c-18.2,0-31-12.9-31-30.7s12.8-30.7,31-30.7
			C67.8,315,77.4,319.9,82.2,328.2z"/>
		<path class="st12" d="M152.3,375.2h-12.6l-5.2-13.8h-25.2l-5.2,13.8H91.9l23-59.1h14.4L152.3,375.2z M113.4,350.6h17.1l-8.5-22.8
			L113.4,350.6z"/>
		<path class="st12" d="M208.9,375.2h-43v-59.1h11.8v48.1H209v11H208.9z"/>
		<path class="st12" d="M247.2,375.2h-14.3l-22.2-59.1h12.5l16.9,47.2l17-47.2h12.2L247.2,375.2z"/>
		<path class="st12" d="M327.1,375.2h-44.2v-59.1h43.8v10.8h-32.1V340h30.6v10.8h-30.6v13.6H327v10.8L327.1,375.2L327.1,375.2z"/>
		<path class="st12" d="M388.2,327.1h-18.3v48.1H358v-48.1h-18.3v-11h48.4v11H388.2z"/>
	</g>
	<g class="st11">
		<path class="st12" d="M30.8,450.3v7.9h-2.3v-19.6h7.4c4.4,0,6.9,2.2,6.9,5.9s-2.5,5.9-6.9,5.9L30.8,450.3L30.8,450.3z M30.8,440.7
			v7.5h5.1c3,0,4.7-1.2,4.7-3.7s-1.6-3.7-4.7-3.7L30.8,440.7L30.8,440.7z"/>
		<path class="st12" d="M54.2,438.5c4.4,0,6.8,2,6.8,5.5c0,3.4-2.6,5.5-6.8,5.5h-0.3l7,8.5h-2.8l-6.9-8.5h-2.5v8.5h-2.3v-19.6h7.8
			V438.5z M48.7,440.6v6.9h5.4c3,0,4.5-1.2,4.5-3.5s-1.6-3.4-4.5-3.4H48.7z"/>
		<path class="st12" d="M83.9,448.3c0,5.9-4.3,10.1-10.1,10.1c-5.8,0-10.1-4.2-10.1-10.1s4.3-10.1,10.1-10.1
			C79.6,438.2,83.9,442.5,83.9,448.3z M66,448.3c0,4.7,3.4,7.9,7.8,7.9s7.8-3.2,7.8-7.9c0-4.7-3.4-7.9-7.8-7.9S66,443.6,66,448.3z"
			/>
		<path class="st12" d="M100.9,449.3H90.1v8.8h-2.3v-19.6h13.6v2.1H90.1v6.5h10.8V449.3z"/>
		<path class="st12" d="M119.1,458.1h-13.8v-19.6H119v2.1h-11.4v6.6h11.1v2.1h-11.1v6.7h11.5V458.1z"/>
		<path class="st12" d="M136.4,442.2c-1.6-1.1-3.6-1.8-5.9-1.8c-3,0-5.1,1.3-5.1,3.5c0,1.8,1.5,2.8,4.5,3.2l1.9,0.2
			c3.2,0.4,6.1,1.8,6.1,5.2c0,3.9-3.5,5.9-7.8,5.9c-2.8,0-5.9-1-7.7-2.5l1.2-1.8c1.4,1.1,3.9,2.2,6.5,2.2c3,0,5.4-1.2,5.4-3.6
			c0-1.9-1.6-2.9-4.7-3.2l-2-0.2c-3.3-0.4-5.8-1.9-5.8-5.2c0-3.7,3.3-5.8,7.4-5.8c3,0,5.2,0.9,7,2.1L136.4,442.2z"/>
		<path class="st12" d="M154.6,442.2c-1.6-1.1-3.6-1.8-5.9-1.8c-3,0-5.1,1.3-5.1,3.5c0,1.8,1.5,2.8,4.5,3.2l1.9,0.2
			c3.2,0.4,6.1,1.8,6.1,5.2c0,3.9-3.5,5.9-7.8,5.9c-2.8,0-5.9-1-7.7-2.5l1.2-1.8c1.4,1.1,3.9,2.2,6.5,2.2c3,0,5.4-1.2,5.4-3.6
			c0-1.9-1.6-2.9-4.7-3.2l-2-0.2c-3.3-0.4-5.8-1.9-5.8-5.2c0-3.7,3.3-5.8,7.4-5.8c3,0,5.2,0.9,7,2.1L154.6,442.2z"/>
		<path class="st12" d="M162.3,458.1H160v-19.6h2.3V458.1z"/>
		<path class="st12" d="M186.4,448.3c0,5.9-4.3,10.1-10.1,10.1s-10.1-4.2-10.1-10.1s4.3-10.1,10.1-10.1
			C182.1,438.2,186.4,442.5,186.4,448.3z M168.5,448.3c0,4.7,3.4,7.9,7.8,7.9c4.4,0,7.8-3.2,7.8-7.9c0-4.7-3.4-7.9-7.8-7.9
			S168.5,443.6,168.5,448.3z"/>
		<path class="st12" d="M206.8,458.1h-2l-12.1-15.7v15.7h-2.3v-19.6h2l12.1,15.7v-15.7h2.3V458.1z"/>
		<path class="st12" d="M228.4,458.1H226l-2.2-5.5H214l-2.2,5.5h-2.3l8.1-19.6h2.8L228.4,458.1z M214.9,450.5h8l-4-9.8L214.9,450.5z
			"/>
		<path class="st12" d="M244.7,458.1h-13.6v-19.6h2.3V456h11.3V458.1z"/>
		<path class="st12" d="M266.4,442.2c-1.6-1.1-3.6-1.8-5.9-1.8c-3,0-5.1,1.3-5.1,3.5c0,1.8,1.5,2.8,4.5,3.2l1.9,0.2
			c3.2,0.4,6.1,1.8,6.1,5.2c0,3.9-3.5,5.9-7.8,5.9c-2.8,0-5.9-1-7.7-2.5l1.2-1.8c1.4,1.1,3.9,2.2,6.5,2.2c3,0,5.4-1.2,5.4-3.6
			c0-1.9-1.6-2.9-4.7-3.2l-2-0.2c-3.3-0.4-5.8-1.9-5.8-5.2c0-3.7,3.3-5.8,7.4-5.8c3,0,5.2,0.9,7,2.1L266.4,442.2z"/>
		<path class="st12" d="M285.6,458.1h-13.8v-19.6h13.7v2.1H274v6.6h11.1v2.1H274v6.7h11.5v2.1L285.6,458.1L285.6,458.1z"/>
		<path class="st12" d="M297.7,438.5c4.4,0,6.8,2,6.8,5.5c0,3.4-2.6,5.5-6.8,5.5h-0.3l7,8.5h-2.8l-6.9-8.5h-2.5v8.5H290v-19.6h7.7
			V438.5z M292.3,440.6v6.9h5.4c3,0,4.5-1.2,4.5-3.5s-1.6-3.4-4.5-3.4H292.3z"/>
		<path class="st12" d="M316.7,458.1h-2.8l-7.9-19.6h2.4l6.9,17.4l6.9-17.4h2.3L316.7,458.1z"/>
		<path class="st12" d="M329.5,458.1h-2.3v-19.6h2.3V458.1z"/>
		<path class="st12" d="M351.6,442.3l-1.9,1.3c-1.3-1.9-3.5-3.2-6.1-3.2c-4.4,0-7.8,3.2-7.8,7.9c0,4.7,3.4,7.9,7.8,7.9
			c2.6,0,4.8-1.2,6.1-3.1l1.8,1.3c-1.6,2.5-4.6,4-7.9,4c-5.8,0-10.1-4.2-10.1-10.1s4.3-10.1,10.1-10.1
			C347,438.2,350,439.8,351.6,442.3z"/>
		<path class="st12" d="M369.2,458.1h-13.8v-19.6H369v2.1h-11.4v6.6h11.1v2.1h-11.1v6.7h11.5v2.1L369.2,458.1L369.2,458.1z"/>
		<path class="st12" d="M386.4,442.2c-1.6-1.1-3.6-1.8-5.9-1.8c-3,0-5.1,1.3-5.1,3.5c0,1.8,1.5,2.8,4.5,3.2l1.9,0.2
			c3.2,0.4,6.1,1.8,6.1,5.2c0,3.9-3.5,5.9-7.8,5.9c-2.8,0-5.9-1-7.7-2.5l1.2-1.8c1.4,1.1,3.9,2.2,6.5,2.2c3,0,5.4-1.2,5.4-3.6
			c0-1.9-1.6-2.9-4.7-3.2l-2-0.2c-3.3-0.4-5.8-1.9-5.8-5.2c0-3.7,3.3-5.8,7.4-5.8c3,0,5.2,0.9,7,2.1L386.4,442.2z"/>
	</g>
	<g class="st11">
		<rect x="25.7" y="404.1" class="st12" width="154.5" height="3.9"/>
		<rect x="237.7" y="404.1" class="st12" width="150.7" height="3.9"/>
	</g>
	<polygon class="st14" points="208.7,388.1 213.7,398.3 224.9,399.9 216.8,407.9 218.7,419 208.7,413.8 198.6,419 200.5,407.9 
		192.4,399.9 203.6,398.3 	"/>
</g>
<g id="Layer_2">
	<g>
		<g>
			<path class="st15" d="M90.8,320.3l-14.1,8.1c-3.5-5.7-9.1-8.9-16-8.9c-10.6,0-18.5,8-18.5,19.6c0,12.5,8.6,19.6,18.6,19.6
				c6.8,0,12.4-3.1,16.3-8.9l13.2,9.3C84.1,368.3,73.9,374,61,374c-20.8,0-35.5-14.5-35.5-35c0-20.4,14.7-35,35.5-35
				C73.7,304.1,85.1,310.1,90.8,320.3z"/>
			<path class="st15" d="M160.7,372.8h-17.1l-5.1-14.2h-26.8l-5.1,14.2H89.8l25.9-67.4h19.2L160.7,372.8z M116.9,344.1h16.4
				l-8.2-22.7L116.9,344.1z"/>
			<path class="st15" d="M214.2,372.8h-50v-67.5h16.1v52.5h33.9L214.2,372.8L214.2,372.8z"/>
			<path class="st15" d="M248.6,372.8h-19.2l-24.9-67.5h17.1l17.5,50.9l17.6-50.9h16.8L248.6,372.8z"/>
			<path class="st15" d="M328.6,372.8H277v-67.5h51.4v14.5h-35.3v11.7h33.3v14.4h-33.3v12.4h35.5V372.8L328.6,372.8z"/>
			<path class="st15" d="M387.5,320.3h-19.9v52.5h-16.1v-52.5h-20v-15h56V320.3z"/>
		</g>
	</g>
	<g>
		<path class="st15" d="M29.8,444.6v7.9h-2.3v-19.6h7.4c4.4,0,6.9,2.2,6.9,5.9s-2.5,5.9-6.9,5.9L29.8,444.6
			C29.8,444.7,29.8,444.6,29.8,444.6z M29.8,435v7.5h5.1c3,0,4.7-1.2,4.7-3.7s-1.6-3.7-4.7-3.7L29.8,435L29.8,435z"/>
		<path class="st15" d="M53.2,432.8c4.4,0,6.8,2,6.8,5.5c0,3.4-2.6,5.5-6.8,5.5h-0.3l7,8.5h-2.8l-6.9-8.5h-2.5v8.5h-2.3v-19.6
			L53.2,432.8L53.2,432.8z M47.7,434.9v6.9h5.4c3,0,4.5-1.2,4.5-3.5s-1.6-3.4-4.5-3.4H47.7z"/>
		<path class="st15" d="M82.9,442.6c0,5.9-4.3,10.1-10.1,10.1c-5.8,0-10.1-4.2-10.1-10.1s4.3-10.1,10.1-10.1S82.9,436.8,82.9,442.6z
			 M65,442.6c0,4.7,3.4,7.9,7.8,7.9s7.8-3.2,7.8-7.9s-3.4-7.9-7.8-7.9S65,437.9,65,442.6z"/>
		<path class="st15" d="M99.9,443.6H89.1v8.8h-2.3v-19.6h13.6v2.1H89.1v6.5h10.8V443.6L99.9,443.6z"/>
		<path class="st15" d="M118.1,452.4h-13.8v-19.6H118v2.1h-11.4v6.6h11.1v2.1h-11.1v6.7h11.5V452.4z"/>
		<path class="st15" d="M135.4,436.5c-1.6-1.1-3.6-1.8-5.9-1.8c-3,0-5.1,1.3-5.1,3.5c0,1.8,1.5,2.8,4.5,3.2l1.9,0.2
			c3.2,0.4,6.1,1.8,6.1,5.2c0,3.9-3.5,5.9-7.8,5.9c-2.8,0-5.9-1-7.7-2.5l1.2-1.8c1.4,1.1,3.9,2.2,6.5,2.2c3,0,5.4-1.2,5.4-3.6
			c0-1.9-1.6-2.9-4.7-3.2l-2-0.2c-3.3-0.4-5.8-1.9-5.8-5.2c0-3.7,3.3-5.8,7.4-5.8c3,0,5.2,0.9,7,2.1L135.4,436.5z"/>
		<path class="st15" d="M153.6,436.5c-1.6-1.1-3.6-1.8-5.9-1.8c-3,0-5.1,1.3-5.1,3.5c0,1.8,1.5,2.8,4.5,3.2l1.9,0.2
			c3.2,0.4,6.1,1.8,6.1,5.2c0,3.9-3.5,5.9-7.8,5.9c-2.8,0-5.9-1-7.7-2.5l1.2-1.8c1.4,1.1,3.9,2.2,6.5,2.2c3,0,5.4-1.2,5.4-3.6
			c0-1.9-1.6-2.9-4.7-3.2l-2-0.2c-3.3-0.4-5.8-1.9-5.8-5.2c0-3.7,3.3-5.8,7.4-5.8c3,0,5.2,0.9,7,2.1L153.6,436.5z"/>
		<path class="st15" d="M161.3,452.4H159v-19.6h2.3V452.4z"/>
		<path class="st15" d="M185.4,442.6c0,5.9-4.3,10.1-10.1,10.1s-10.1-4.2-10.1-10.1s4.3-10.1,10.1-10.1
			C181.1,432.5,185.4,436.8,185.4,442.6z M167.5,442.6c0,4.7,3.4,7.9,7.8,7.9c4.4,0,7.8-3.2,7.8-7.9s-3.4-7.9-7.8-7.9
			S167.5,437.9,167.5,442.6z"/>
		<path class="st15" d="M205.8,452.4h-2l-12.1-15.7v15.7h-2.3v-19.6h2l12.1,15.7v-15.7h2.3V452.4z"/>
		<path class="st15" d="M227.4,452.4H225l-2.2-5.5H213l-2.2,5.5h-2.3l8.1-19.6h2.8L227.4,452.4z M213.9,444.8h8l-4-9.8L213.9,444.8z
			"/>
		<path class="st15" d="M243.7,452.4h-13.6v-19.6h2.3v17.5h11.3V452.4z"/>
		<path class="st15" d="M265.4,436.5c-1.6-1.1-3.6-1.8-5.9-1.8c-3,0-5.1,1.3-5.1,3.5c0,1.8,1.5,2.8,4.5,3.2l1.9,0.2
			c3.2,0.4,6.1,1.8,6.1,5.2c0,3.9-3.5,5.9-7.8,5.9c-2.8,0-5.9-1-7.7-2.5l1.2-1.8c1.4,1.1,3.9,2.2,6.5,2.2c3,0,5.4-1.2,5.4-3.6
			c0-1.9-1.6-2.9-4.7-3.2l-2-0.2c-3.3-0.4-5.8-1.9-5.8-5.2c0-3.7,3.3-5.8,7.4-5.8c3,0,5.2,0.9,7,2.1L265.4,436.5z"/>
		<path class="st15" d="M284.6,452.4h-13.8v-19.6h13.7v2.1H273v6.6h11.1v2.1H273v6.7h11.5L284.6,452.4L284.6,452.4z"/>
		<path class="st15" d="M296.7,432.8c4.4,0,6.8,2,6.8,5.5c0,3.4-2.6,5.5-6.8,5.5h-0.3l7,8.5h-2.8l-6.9-8.5h-2.5v8.5H289v-19.6
			L296.7,432.8L296.7,432.8z M291.3,434.9v6.9h5.4c3,0,4.5-1.2,4.5-3.5s-1.6-3.4-4.5-3.4H291.3z"/>
		<path class="st15" d="M315.7,452.4h-2.8l-7.9-19.6h2.4l6.9,17.4l6.9-17.4h2.3L315.7,452.4z"/>
		<path class="st15" d="M328.5,452.4h-2.3v-19.6h2.3V452.4z"/>
		<path class="st15" d="M350.6,436.6l-1.9,1.3c-1.3-1.9-3.5-3.2-6.1-3.2c-4.4,0-7.8,3.2-7.8,7.9s3.4,7.9,7.8,7.9
			c2.6,0,4.8-1.2,6.1-3.1l1.8,1.3c-1.6,2.5-4.6,4-7.9,4c-5.8,0-10.1-4.2-10.1-10.1s4.3-10.1,10.1-10.1
			C346,432.5,349,434.1,350.6,436.6z"/>
		<path class="st15" d="M368.2,452.4h-13.8v-19.6H368v2.1h-11.4v6.6h11.1v2.1h-11.1v6.7h11.5v2.1L368.2,452.4L368.2,452.4z"/>
		<path class="st15" d="M385.4,436.5c-1.6-1.1-3.6-1.8-5.9-1.8c-3,0-5.1,1.3-5.1,3.5c0,1.8,1.5,2.8,4.5,3.2l1.9,0.2
			c3.2,0.4,6.1,1.8,6.1,5.2c0,3.9-3.5,5.9-7.8,5.9c-2.8,0-5.9-1-7.7-2.5l1.2-1.8c1.4,1.1,3.9,2.2,6.5,2.2c3,0,5.4-1.2,5.4-3.6
			c0-1.9-1.6-2.9-4.7-3.2l-2-0.2c-3.3-0.4-5.8-1.9-5.8-5.2c0-3.7,3.3-5.8,7.4-5.8c3,0,5.2,0.9,7,2.1L385.4,436.5z"/>
	</g>
	<g>
		<rect x="24.7" y="402.9" class="st15" width="113.2" height="2.8"/>
		<rect x="277.2" y="403" class="st15" width="110.1" height="2.7"/>
	</g>
	<polygon class="st2" points="207.7,386.4 212.7,396.6 223.9,398.2 215.8,406.2 217.7,417.3 207.7,412.1 197.6,417.3 199.5,406.2 
		191.4,398.2 202.6,396.6 	"/>
	<polygon class="st2" points="250.7,390.2 254.1,397.2 261.9,398.4 256.3,403.9 257.6,411.6 250.7,407.9 243.7,411.6 245,403.9 
		239.4,398.4 247.2,397.2 	"/>
	<polygon class="st2" points="164.7,390.1 168.2,397.2 176,398.3 170.4,403.8 171.7,411.6 164.7,407.9 157.8,411.6 159.1,403.8 
		153.5,398.3 161.3,397.2 	"/>
</g>
</svg>
